<svg width="36" height="36" viewBox="0 0 36 36" fill="none" xmlns="http://www.w3.org/2000/svg">
<g clip-path="url(#clip0_392_66)">
<path d="M18.0001 4.5C20.8771 4.5 23.2801 6.525 23.8651 9.2265C25.4013 8.81077 27.0397 9.02233 28.42 9.81462C29.8002 10.6069 30.8091 11.915 31.2249 13.4512C31.6406 14.9874 31.429 16.6259 30.6367 18.0061C29.8444 19.3863 28.5363 20.3953 27.0001 20.811V31.5H9.00011V20.811C8.23946 20.605 7.52684 20.2511 6.90294 19.7697C6.27905 19.2882 5.75608 18.6886 5.36392 18.005C4.97175 17.3215 4.71807 16.5674 4.61734 15.7858C4.51661 15.0042 4.57081 14.2104 4.77686 13.4498C4.9829 12.6891 5.33675 11.9765 5.8182 11.3526C6.29965 10.7287 6.89927 10.2057 7.58282 9.81356C8.26638 9.4214 9.02048 9.16771 9.80208 9.06698C10.5837 8.96625 11.3775 9.02046 12.1381 9.2265C12.4289 7.88785 13.1689 6.689 14.2353 5.82916C15.3017 4.96933 16.6302 4.5003 18.0001 4.5Z" stroke="#F9E0AE" stroke-width="2" stroke-linecap="round" stroke-linejoin="round"/>
<path d="M9.24146 25.5135L27 25.5" stroke="#F9E0AE" stroke-width="2" stroke-linecap="round" stroke-linejoin="round"/>
</g>
<defs>
<clipPath id="clip0_392_66">
<rect width="36" height="36" fill="white"/>
</clipPath>
</defs>
</svg>
