<svg width="30" height="26" viewBox="0 0 30 26" fill="none" xmlns="http://www.w3.org/2000/svg">
<g opacity="0.4">
<path d="M27.6569 3.64555H6.53242L6.08905 1.07396C6.03579 0.772968 5.87821 0.500354 5.64399 0.303963C5.40976 0.107573 5.11384 -4.45206e-05 4.80818 1.38165e-08H1.30057C0.95564 2.10854e-08 0.624834 0.137024 0.380929 0.380929C0.137024 0.624834 0 0.95564 0 1.30057C0 1.64551 0.137024 1.97631 0.380929 2.22022C0.624834 2.46412 0.95564 2.60115 1.30057 2.60115H3.70466L4.54215 7.36006L5.81317 16.602C5.88041 17.1454 6.14381 17.6456 6.55385 18.0084C6.9639 18.3713 7.49236 18.5719 8.03991 18.5726H26.2381C26.7856 18.5719 27.3141 18.3713 27.7241 18.0084C28.1342 17.6456 28.3976 17.1454 28.4648 16.602L29.8836 6.20728C29.9288 5.8886 29.905 5.56394 29.8137 5.25528C29.7225 4.94662 29.566 4.66116 29.3549 4.41824C29.1437 4.17532 28.8828 3.98062 28.5899 3.8473C28.2969 3.71399 27.9787 3.64518 27.6569 3.64555Z" fill="#EFE3C8"/>
<path d="M10.9462 20.4816C10.4001 20.4816 9.86632 20.6436 9.41243 20.9472C8.95854 21.2508 8.60495 21.6822 8.39643 22.1869C8.18792 22.6916 8.13386 23.2468 8.24111 23.7822C8.34836 24.3176 8.61209 24.8092 8.9989 25.1946C9.38571 25.58 9.8782 25.842 10.414 25.9473C10.9498 26.0527 11.5048 25.9966 12.0087 25.7863C12.5127 25.576 12.9429 25.2208 13.2448 24.7659C13.5468 24.3109 13.7069 23.7765 13.7049 23.2305C13.7049 22.8687 13.6335 22.5104 13.4948 22.1762C13.356 21.8421 13.1526 21.5386 12.8963 21.2832C12.64 21.0278 12.3358 20.8255 12.0012 20.688C11.6665 20.5504 11.308 20.4803 10.9462 20.4816Z" fill="#EFE3C8"/>
<path d="M22.9867 20.482C22.4429 20.4917 21.914 20.662 21.4667 20.9714C21.0193 21.2808 20.6734 21.7156 20.4724 22.221C20.2715 22.7265 20.2244 23.28 20.3371 23.8122C20.4499 24.3443 20.7174 24.8312 21.1061 25.2117C21.4948 25.5922 21.9873 25.8494 22.5217 25.9508C23.0561 26.0522 23.6086 25.9933 24.1096 25.7816C24.6107 25.57 25.038 25.2149 25.3378 24.761C25.6377 24.3072 25.7966 23.7749 25.7948 23.2309C25.7935 22.8653 25.7196 22.5035 25.5773 22.1667C25.435 21.8299 25.2272 21.5247 24.9659 21.2689C24.7046 21.0131 24.3951 20.8118 24.0553 20.6768C23.7156 20.5417 23.3523 20.4754 22.9867 20.482Z" fill="#EFE3C8"/>
</g>
</svg>
