<svg width="36" height="36" viewBox="0 0 36 36" fill="none" xmlns="http://www.w3.org/2000/svg">
<g clip-path="url(#clip0_391_143)">
<path d="M4.5 21C5.745 21.963 7.6155 22.5255 9.75 22.5C11.8845 22.5255 13.755 21.963 15 21C16.245 20.037 18.1155 19.4745 20.25 19.5C22.3845 19.4745 24.255 20.037 25.5 21" stroke="#F9E0AE" stroke-width="2" stroke-linecap="round" stroke-linejoin="round"/>
<path d="M12.0001 4.5C11.5253 4.84076 11.1407 5.29196 10.8793 5.81464C10.618 6.33731 10.4878 6.91576 10.5001 7.5C10.4878 8.08424 10.618 8.66269 10.8793 9.18536C11.1407 9.70804 11.5253 10.1592 12.0001 10.5" stroke="#F9E0AE" stroke-width="2" stroke-linecap="round" stroke-linejoin="round"/>
<path d="M18.0001 4.5C17.5253 4.84076 17.1407 5.29196 16.8793 5.81464C16.618 6.33731 16.4878 6.91576 16.5001 7.5C16.4878 8.08424 16.618 8.66269 16.8793 9.18536C17.1407 9.70804 17.5253 10.1592 18.0001 10.5" stroke="#F9E0AE" stroke-width="2" stroke-linecap="round" stroke-linejoin="round"/>
<path d="M4.5 15H25.5V22.5C25.5 24.8869 24.5518 27.1761 22.864 28.864C21.1761 30.5518 18.8869 31.5 16.5 31.5H13.5C11.1131 31.5 8.82387 30.5518 7.13604 28.864C5.44821 27.1761 4.5 24.8869 4.5 22.5V15Z" stroke="#F9E0AE" stroke-width="2" stroke-linecap="round" stroke-linejoin="round"/>
<path d="M25.1189 25.089C25.7888 25.3965 26.524 25.5348 27.2598 25.4916C27.9957 25.4484 28.7096 25.2252 29.339 24.8414C29.9683 24.4577 30.4938 23.9252 30.8692 23.2909C31.2445 22.6565 31.4583 21.9396 31.4917 21.2033C31.5251 20.4669 31.3771 19.7336 31.0607 19.0679C30.7443 18.4021 30.2693 17.8242 29.6772 17.3851C29.0852 16.946 28.3944 16.659 27.6655 16.5494C26.9366 16.4398 26.1919 16.5109 25.4969 16.7565" stroke="#F9E0AE" stroke-width="2" stroke-linecap="round" stroke-linejoin="round"/>
</g>
<defs>
<clipPath id="clip0_391_143">
<rect width="36" height="36" fill="white"/>
</clipPath>
</defs>
</svg>
