<svg width="302" height="376" viewBox="0 0 302 376" fill="none" xmlns="http://www.w3.org/2000/svg">
<path d="M117.96 318.242C118.71 320.128 121.304 320.294 122.283 318.524C122.294 318.513 122.294 318.513 122.294 318.503C122.669 317.857 123.033 317.19 123.429 316.534C123.835 315.888 124.242 315.232 124.658 314.576C125.46 313.242 126.377 311.951 127.273 310.607C127.721 309.93 128.21 309.284 128.7 308.628C129.189 307.971 129.679 307.305 130.179 306.638C130.7 305.982 131.221 305.326 131.742 304.659C132.002 304.326 132.273 303.992 132.533 303.669C132.814 303.336 133.085 303.013 133.356 302.68C133.919 302.024 134.471 301.378 135.033 300.711C135.606 300.055 136.2 299.419 136.794 298.763C137.96 297.451 139.21 296.201 140.45 294.888C141.721 293.628 143.002 292.336 144.356 291.096C145.023 290.482 145.7 289.857 146.377 289.232C147.064 288.617 147.762 288.003 148.45 287.388C148.804 287.086 149.148 286.774 149.502 286.461C149.856 286.169 150.21 285.857 150.564 285.565C151.283 284.961 152.002 284.357 152.721 283.742C154.2 282.576 155.658 281.357 157.169 280.211C157.929 279.638 158.689 279.044 159.45 278.471C160.221 277.909 160.992 277.336 161.762 276.763C162.533 276.19 163.314 275.649 164.106 275.086C164.887 274.524 165.669 273.951 166.46 273.409C167.262 272.867 168.054 272.315 168.856 271.763C169.658 271.232 170.46 270.69 171.273 270.149C172.887 269.055 174.523 268.024 176.158 266.961C179.429 264.857 182.752 262.826 186.075 260.815C192.731 256.815 199.439 252.971 206.012 249.221C212.585 245.461 219.012 241.784 225.148 238.138C228.221 236.326 231.169 234.44 234.075 232.638C236.96 230.805 239.742 228.951 242.408 227.117C243.085 226.659 243.731 226.19 244.387 225.732C245.033 225.274 245.679 224.805 246.325 224.346C246.95 223.878 247.575 223.419 248.2 222.951C248.512 222.721 248.814 222.492 249.127 222.263C249.429 222.024 249.731 221.794 250.033 221.565C250.637 221.096 251.231 220.638 251.825 220.18C252.398 219.711 252.971 219.242 253.544 218.784C254.7 217.867 255.762 216.909 256.846 216.003C257.148 215.753 258.96 214.055 260.512 212.596C261.898 211.294 262.085 209.159 260.95 207.617C259.742 205.971 258.408 204.409 256.939 202.93C233.242 179.221 185.023 189.034 149.231 224.857C119.669 254.451 107.825 292.524 117.96 318.242Z" fill="#D36C27"/>
<path d="M125.82 334.764C123.948 332.527 119.21 324.608 118.114 321.934C116.995 319.178 116.094 316.314 115.41 313.343C66.1168 289.17 35.5894 251.444 19.9456 227.298C14.4828 218.857 1.43794 221.941 0.357517 231.935C-2.38106 257.243 10.6948 289.109 36.7832 314.548C68.8533 345.838 110.138 357.206 136.357 344.036C133.71 342.33 131.236 340.372 128.979 338.171C127.882 337.102 126.815 335.949 125.82 334.764ZM114.832 310.527C112.789 299.094 113.886 286.256 118.119 272.763C121.852 260.85 127.838 249.147 135.72 238.191C132.131 233.706 128.178 229.329 123.874 225.123C95.4754 197.422 59.8489 185.336 33.8602 192.076C27.4123 193.752 24.0556 200.889 26.8831 206.927C47.3201 250.668 96.4324 294.908 114.832 310.527Z" fill="#55290B"/>
<path d="M299.852 257.526C299.196 254.617 295.606 253.572 293.514 255.695L293.471 255.735C289.268 259.959 284.406 264.215 278.98 268.287C278.299 268.798 277.618 269.308 276.937 269.829C276.236 270.328 275.534 270.826 274.822 271.335C273.419 272.354 271.965 273.328 270.5 274.334C269.025 275.318 267.548 276.333 266.013 277.283C265.249 277.768 264.486 278.254 263.723 278.739C262.95 279.214 262.166 279.698 261.392 280.184C255.153 284.03 248.586 287.737 241.908 291.386C235.218 295.045 228.417 298.646 221.687 302.282C218.306 304.094 214.966 305.94 211.647 307.776C208.348 309.633 205.06 311.481 201.852 313.385C201.048 313.848 200.254 314.332 199.459 314.816C198.665 315.289 197.872 315.763 197.087 316.248C196.303 316.732 195.519 317.217 194.746 317.691C193.962 318.176 193.199 318.672 192.435 319.158C190.888 320.128 189.402 321.132 187.896 322.115C187.163 322.622 186.42 323.119 185.687 323.627C185.321 323.871 184.955 324.114 184.589 324.368C184.222 324.622 183.866 324.876 183.51 325.131C180.611 327.132 177.904 329.258 175.221 331.322C173.919 332.387 172.599 333.409 171.359 334.498C170.74 335.032 170.11 335.555 169.501 336.1C168.901 336.645 168.292 337.18 167.705 337.705C167.4 337.983 167.095 338.24 166.801 338.507C166.517 338.786 166.233 339.054 165.949 339.333C165.371 339.879 164.803 340.416 164.236 340.952C163.678 341.5 163.142 342.048 162.605 342.596C162.068 343.145 161.512 343.671 161.006 344.231C159.984 345.341 158.933 346.397 157.994 347.51C157.52 348.062 157.046 348.602 156.572 349.143C156.119 349.696 155.665 350.248 155.223 350.78C153.962 352.316 152.785 353.846 151.682 355.348C151.069 356.195 151.057 357.341 151.674 358.173C152.478 359.264 153.336 360.316 154.259 361.319C176.808 386.113 225.444 378.574 262.877 344.48C291.922 318.012 305.689 283.328 299.852 257.526Z" fill="#D36C27"/>
<path d="M130.77 30C130.77 30 150.79 56.3438 134.572 95.9479C118.343 135.563 124.926 143.635 137.978 158.479C137.978 158.479 101.572 143.135 119.238 96.3646C127.551 74.3229 139.27 60.8854 130.77 30Z" fill="#5B4F47"/>
<path d="M172.77 0C172.77 0 192.79 26.3438 176.572 65.9479C160.343 105.563 166.926 113.635 179.978 128.479C179.978 128.479 143.572 113.135 161.238 66.3646C169.551 44.3229 181.27 30.8854 172.77 0Z" fill="#5B4F47"/>
<path d="M124.651 325.958C124.651 325.958 142.318 287.846 195.655 267.748C248.992 247.65 254.16 235.612 263.074 212.717C263.074 212.717 267.093 254.781 204.98 279.715C175.704 291.464 154.025 293.298 124.651 325.958Z" fill="#42862A"/>
<path d="M273.231 241.582C277.881 238.602 284.066 239.955 287.047 244.605C290.027 249.255 288.673 255.44 284.024 258.42L155.798 340.606C151.149 343.587 144.963 342.233 141.983 337.583C139.003 332.934 140.356 326.748 145.006 323.768L273.231 241.582Z" fill="#894213"/>
</svg>
