<svg width="27" height="24" viewBox="0 0 27 24" fill="none" xmlns="http://www.w3.org/2000/svg">
<g clip-path="url(#clip0_342_86)">
<path d="M5.07143 8C5.07143 6.93913 5.52296 5.92172 6.32669 5.17157C7.13042 4.42143 8.22051 4 9.35715 4H17.9286C19.0652 4 20.1553 4.42143 20.959 5.17157C21.7628 5.92172 22.2143 6.93913 22.2143 8V16C22.2143 17.0609 21.7628 18.0783 20.959 18.8284C20.1553 19.5786 19.0652 20 17.9286 20H9.35715C8.22051 20 7.13042 19.5786 6.32669 18.8284C5.52296 18.0783 5.07143 17.0609 5.07143 16V8Z" stroke="#F9E0AE" stroke-width="2" stroke-linecap="round" stroke-linejoin="round"/>
<path d="M10.4286 12C10.4286 12.7956 10.7672 13.5587 11.37 14.1213C11.9728 14.6839 12.7904 15 13.6429 15C14.4953 15 15.3129 14.6839 15.9157 14.1213C16.5185 13.5587 16.8571 12.7956 16.8571 12C16.8571 11.2044 16.5185 10.4413 15.9157 9.87868C15.3129 9.31607 14.4953 9 13.6429 9C12.7904 9 11.9728 9.31607 11.37 9.87868C10.7672 10.4413 10.4286 11.2044 10.4286 12Z" stroke="#F9E0AE" stroke-width="2" stroke-linecap="round" stroke-linejoin="round"/>
<path d="M18.4643 7.5V7.51" stroke="#F9E0AE" stroke-width="2" stroke-linecap="round" stroke-linejoin="round"/>
</g>
<defs>
<clipPath id="clip0_342_86">
<rect width="25.7143" height="24" fill="white" transform="translate(0.785721)"/>
</clipPath>
</defs>
</svg>
