<svg width="25" height="29" viewBox="0 0 25 29" fill="none" xmlns="http://www.w3.org/2000/svg">
<path opacity="0.4" d="M21.3384 3.66109C23.6332 5.95566 24.9457 9.05278 24.9984 12.2976C25.051 15.5423 23.8396 18.6804 21.6203 21.0481L21.3384 21.3398L15.4455 27.2313C14.6978 27.9786 13.694 28.4137 12.6375 28.4485C11.5809 28.4833 10.5507 28.1152 9.75538 27.4188L9.55538 27.2313L3.66109 21.3384C1.31693 18.9943 0 15.8149 0 12.4998C0 9.18461 1.31693 6.00525 3.66109 3.66109C6.00525 1.31693 9.18461 0 12.4998 0C15.8149 0 18.9943 1.31693 21.3384 3.66109ZM12.4998 8.33319C11.9526 8.33319 11.4108 8.44096 10.9053 8.65035C10.3998 8.85974 9.94045 9.16665 9.55355 9.55355C9.16665 9.94045 8.85974 10.3998 8.65035 10.9053C8.44096 11.4108 8.33319 11.9526 8.33319 12.4998C8.33319 13.0469 8.44096 13.5887 8.65035 14.0942C8.85974 14.5997 9.16665 15.0591 9.55355 15.446C9.94045 15.8329 10.3998 16.1398 10.9053 16.3491C11.4108 16.5585 11.9526 16.6663 12.4998 16.6663C13.6048 16.6663 14.6646 16.2273 15.446 15.446C16.2273 14.6646 16.6663 13.6048 16.6663 12.4998C16.6663 11.3947 16.2273 10.3349 15.446 9.55355C14.6646 8.77217 13.6048 8.33319 12.4998 8.33319Z" fill="#EFE3C8"/>
</svg>
