<svg width="27" height="24" viewBox="0 0 27 24" fill="none" xmlns="http://www.w3.org/2000/svg">
<path d="M23 7.917V11.951C21.0565 11.771 19.2033 11.0961 17.6429 10V14.5C17.6426 15.7211 17.2737 16.9175 16.5786 17.952C15.8835 18.9865 14.8902 19.8174 13.7125 20.3493C12.5348 20.8813 11.2204 21.0929 9.91984 20.9599C8.61927 20.8268 7.38516 20.3545 6.3589 19.5971C5.33263 18.8397 4.55572 17.8278 4.11717 16.6773C3.67862 15.5268 3.59617 14.2843 3.87927 13.0921C4.16237 11.8999 4.79957 10.8062 5.71786 9.93642C6.63615 9.0666 7.79839 8.4558 9.07143 8.174V12.5C8.70616 12.7557 8.41699 13.0943 8.23136 13.4836C8.04573 13.8729 7.96982 14.3001 8.01082 14.7245C8.05182 15.1489 8.20839 15.5565 8.46564 15.9086C8.72289 16.2606 9.0723 16.5455 9.48068 16.7361C9.88905 16.9266 10.3428 17.0166 10.799 16.9975C11.2551 16.9783 11.6984 16.8507 12.0868 16.6266C12.4752 16.4026 12.7958 16.0896 13.0181 15.7174C13.2404 15.3452 13.3571 14.9261 13.3571 14.5V3H17.7318C17.9549 4.2284 18.5818 5.36162 19.5258 6.24263C20.4697 7.12363 21.6839 7.70878 23 7.917Z" stroke="#F9E0AE" stroke-width="2" stroke-linecap="round" stroke-linejoin="round"/>
</svg>
