<svg
  width="30"
  height="31"
  viewBox="0 0 30 31"
  fill="none"
  xmlns="http://www.w3.org/2000/svg"
>
  <path
    opacity="0.4"
    d="M25.7143 26.2875H23.5714V26.8449C23.5714 27.8816 23.2422 28.7079 22.5837 29.3241C21.9252 29.9402 21.1272 30.1602 20.1897 29.9842L3.3817 27.0796C2.4442 26.9232 1.64621 26.4244 0.987723 25.5834C0.329241 24.7423 0 23.8035 0 22.7669V3.75536C0 2.71872 0.418527 1.83367 1.25558 1.1002C2.09263 0.366734 3.10268 0 4.28571 0H25.7143C26.8973 0 27.9074 0.366734 28.7444 1.1002C29.5815 1.83367 30 2.71872 30 3.75536V22.5321C30 23.5688 29.5815 24.4538 28.7444 25.1873C27.9074 25.9208 26.8973 26.2875 25.7143 26.2875ZM4.28571 12.2343C4.28571 13.134 4.62054 13.9555 5.29018 14.6987C5.37946 14.8161 5.61942 15.0019 6.01004 15.2561C6.40067 15.5104 6.74665 15.7793 7.04799 16.063C7.34933 16.3466 7.5 16.6253 7.5 16.8991V20.6545C7.5 20.9479 7.85156 21.2168 8.55469 21.4613C9.25781 21.7058 10.3348 21.9845 11.7857 22.2974C12.6562 22.493 13.4096 22.5664 14.0458 22.5175C14.6819 22.4686 15.1786 22.3561 15.5357 22.1801C15.8929 22.004 16.0714 21.8085 16.0714 21.5933V17.8379C16.0714 17.5641 16.2221 17.305 16.5234 17.0605C16.8248 16.816 17.1819 16.5959 17.5949 16.4004C18.0078 16.2048 18.2478 16.0776 18.3147 16.0189C18.4263 15.9407 18.5882 15.8527 18.8002 15.7549C19.0123 15.6571 19.1462 15.5544 19.202 15.4468C19.2578 15.3393 19.2857 15.1486 19.2857 14.8747C19.2857 13.9946 18.9621 13.1829 18.3147 12.4396C17.6674 11.6964 16.8973 11.2465 16.0045 11.09C15.4464 10.9922 14.9219 11.0411 14.4308 11.2367C13.7612 10.2392 12.8739 9.64266 11.769 9.44707C10.6641 9.25148 9.78795 9.53509 9.14062 10.2979C8.62723 9.94583 8.10268 9.7209 7.56696 9.6231C6.65179 9.46663 5.87612 9.64266 5.23996 10.1512C4.60379 10.6597 4.28571 11.3541 4.28571 12.2343ZM27.8571 5.10494C27.8571 4.20522 27.4944 3.44241 26.769 2.81652C26.0435 2.19063 25.1786 1.87768 24.1741 1.87768H8.60491L20.1897 3.87271C21.1272 4.04875 21.9252 4.55728 22.5837 5.39833C23.2422 6.23937 23.5714 7.16843 23.5714 8.18551V24.4098H24.1741C25.1786 24.4098 26.0435 24.092 26.769 23.4563C27.4944 22.8206 27.8571 22.0627 27.8571 21.1826V5.10494Z"
    fill="#EFE3C8"
  />
</svg>
